<?xml version="1.0" encoding="utf-8"?>
<!-- Generator: Adobe Illustrator 20.0.0, SVG Export Plug-In . SVG Version: 6.00 Build 0)  -->
<svg version="1.1" id="Layer_1" xmlns="http://www.w3.org/2000/svg" xmlns:xlink="http://www.w3.org/1999/xlink" x="0px" y="0px"
	 viewBox="0 0 512 512" style="enable-background:new 0 0 512 512;" xml:space="preserve">
<style type="text/css">
	.st0{fill:#C9A07C;}
	.st1{fill:#E6BE8A;}
	.st2{fill:#00A077;}
	.st3{fill:#FFFFFF;}
</style>
<g>
	<g>
		<g>
			<path class="st0" d="M282,275h-52c-1.1,0-2-0.9-2-2s0.9-2,2-2h52c1.1,0,2,0.9,2,2S283.1,275,282,275z"/>
		</g>
	</g>
	<g>
		<path class="st1" d="M282,174.8c-0.1-1-1-1.8-2-1.8h-8.1c-0.6,0-1.1,0.2-1.5,0.7c-0.4,0.4-0.6,1-0.5,1.6l1.1,10c0.1,1,1,1.8,2,1.8
			h8.1c0.6,0,1.1-0.2,1.5-0.7c0.4-0.4,0.6-1,0.5-1.6L282,174.8z"/>
	</g>
	<g>
		<path class="st1" d="M290.3,248.8c-0.1-1-1-1.8-2-1.8h-8.1c-0.6,0-1.1,0.2-1.5,0.7c-0.4,0.4-0.6,1-0.5,1.6l5.6,50
			c0.1,1,1,1.8,2,1.8h8.1c0.6,0,1.1-0.2,1.5-0.7c0.4-0.4,0.6-1,0.5-1.6L290.3,248.8z"/>
	</g>
	<g>
		<path class="st1" d="M241.5,173.7c-0.4-0.4-0.9-0.7-1.5-0.7H232c-1,0-1.9,0.8-2,1.8l-1.1,10c-0.1,0.6,0.1,1.1,0.5,1.6
			c0.4,0.4,0.9,0.7,1.5,0.7h8.1c1,0,1.9-0.8,2-1.8l1.1-10C242.1,174.7,241.9,174.1,241.5,173.7z"/>
	</g>
	<g>
		<path class="st1" d="M233.2,247.7c-0.4-0.4-0.9-0.7-1.5-0.7h-8.1c-1,0-1.9,0.8-2,1.8l-5.6,50c-0.1,0.6,0.1,1.1,0.5,1.6
			c0.4,0.4,0.9,0.7,1.5,0.7h8.1c1,0,1.9-0.8,2-1.8l5.6-50C233.7,248.7,233.5,248.1,233.2,247.7z"/>
	</g>
	<g>
		<path class="st2" d="M302,183h-92c-2.2,0-4,1.8-4,4v60c0,2.2,1.8,4,4,4h92c2.2,0,4-1.8,4-4v-60C306,184.8,304.2,183,302,183z"/>
	</g>
	<g>
		<g>
			<path class="st0" d="M306,259H206c-1.1,0-2-0.9-2-2s0.9-2,2-2h100c1.1,0,2,0.9,2,2S307.1,259,306,259z"/>
		</g>
	</g>
	<g>
		<g>
			<path class="st0" d="M228,301h-14c-1.1,0-2-0.9-2-2s0.9-2,2-2h14c1.1,0,2,0.9,2,2S229.1,301,228,301z"/>
		</g>
	</g>
	<g>
		<g>
			<path class="st0" d="M298,301h-14c-1.1,0-2-0.9-2-2s0.9-2,2-2h14c1.1,0,2,0.9,2,2S299.1,301,298,301z"/>
		</g>
	</g>
	<g>
		<g>
			<path class="st3" d="M278,199h-26c-0.9,0-1.6,0.6-1.9,1.4l-8.3,26.6l-5.9-14.8c-0.3-0.8-1-1.3-1.9-1.3h-8c-1.1,0-2,0.9-2,2
				s0.9,2,2,2h6.6l7.5,18.7c0.3,0.8,1,1.3,1.9,1.3c0,0,0.1,0,0.1,0c0.8,0,1.6-0.6,1.8-1.4l9.6-30.6H278c1.1,0,2-0.9,2-2
				S279.1,199,278,199z"/>
		</g>
		<g>
			<path class="st3" d="M275.2,209.4c-0.9-0.7-2.1-0.5-2.8,0.4l-6.4,8.8l-6.4-8.8c-0.6-0.9-1.9-1.1-2.8-0.4
				c-0.9,0.6-1.1,1.9-0.4,2.8l7.1,9.8l-7.1,9.8c-0.7,0.9-0.5,2.1,0.4,2.8c0.4,0.3,0.8,0.4,1.2,0.4c0.6,0,1.2-0.3,1.6-0.8l6.4-8.8
				l6.4,8.8c0.4,0.5,1,0.8,1.6,0.8c0.4,0,0.8-0.1,1.2-0.4c0.9-0.6,1.1-1.9,0.4-2.8l-7.1-9.8l7.1-9.8
				C276.3,211.3,276.1,210,275.2,209.4z"/>
		</g>
	</g>
</g>
</svg>
