<?xml version="1.0" encoding="utf-8"?>
<!-- Generator: Adobe Illustrator 20.0.0, SVG Export Plug-In . SVG Version: 6.00 Build 0)  -->
<svg version="1.1" id="Layer_1" xmlns="http://www.w3.org/2000/svg" xmlns:xlink="http://www.w3.org/1999/xlink" x="0px" y="0px"
	 viewBox="0 0 612 792" style="enable-background:new 0 0 612 792;" xml:space="preserve">
<style type="text/css">
	.st0{fill:#F38181;}
	.st1{fill:#FCE389;}
	.st2{fill:#9BD6CE;}
</style>
<path class="st0" d="M181.6,114.4l-6.9,0.2c-42.8,1.1-74.8,36.9-71.1,79.5l0.8,9.4l-9.5,0.2c-42.8,1.1-74.8,36.9-71.1,79.5l0.6,6.9
	c3.7,42.7,41.9,76.7,84.7,75.7l9.5-0.2l162.6-4l-14.2-162.1l-0.8-9.4C262.5,147.3,224.4,113.3,181.6,114.4z"/>
<path class="st1" d="M558.3,341.1l2-6.6c12.5-41-11.3-82.6-53-92.6l-9.2-2.2l2.8-9c12.5-41-11.3-82.6-53-92.6l-6.7-1.6
	c-41.7-10-86,15.4-98.6,56.4l-2.8,9l-47.6,155.6l158.2,37.8l9.2,2.2C501.4,407.4,545.8,382,558.3,341.1z"/>
<path class="st2" d="M179.6,610.5l4.9,4.8c30.6,29.9,78.6,27.9,106.6-4.6l6.2-7.2l6.8,6.6c30.6,29.9,78.6,27.9,106.6-4.6l4.5-5.2
	c28-32.5,25.8-83.5-4.9-113.5l-6.8-6.6L287.1,366.7L180.9,489.9l-6.2,7.2C146.7,529.5,148.9,580.6,179.6,610.5z"/>
</svg>
