<?xml version="1.0" encoding="utf-8"?>
<!-- Generator: Adobe Illustrator 20.0.0, SVG Export Plug-In . SVG Version: 6.00 Build 0)  -->
<svg version="1.1" id="Layer_1" xmlns="http://www.w3.org/2000/svg" xmlns:xlink="http://www.w3.org/1999/xlink" x="0px" y="0px"
	 viewBox="0 0 612 792" style="enable-background:new 0 0 612 792;" xml:space="preserve">
<style type="text/css">
	.st0{fill:#8DC63F;stroke:#39B54A;stroke-miterlimit:10;}
	.st1{fill:#9BD6CE;}
	.st2{fill:#F4D473;}
	.st3{fill:#F38181;}
	.st4{fill:#63C190;}
	.st5{fill:#EDF0F1;}
	.st6{fill:#556B7A;}
	.st7{fill:#ED7161;}
	.st8{fill:#EFC41C;}
	.st9{fill:#50BA6F;}
	.st10{fill:#95A5A4;}
	.st11{fill:#BDC3C7;}
	.st12{fill:#8797CA;}
	.st13{fill:#E54D3C;}
	.st14{fill:#C9A17D;}
	.st15{fill:#E6BE8A;}
	.st16{fill:#04A078;}
	.st17{fill:#FFFFFF;}
	.st18{fill:#FFD7A3;}
	.st19{fill:#FDC98E;}
	.st20{fill:#744B3F;}
	.st21{fill:#634034;}
	.st22{fill:#FFE1B2;}
	.st23{fill:#E3B17C;}
	.st24{fill:#BA7E64;}
	.st25{fill:#FAA551;}
	.st26{fill:#F68B54;}
	.st27{fill:#5E352F;}
	.st28{fill:#F5B47B;}
	.st29{fill:#E3A172;}
	.st30{fill:#FFC94B;}
	.st31{fill:#FDDB47;}
	.st32{fill:#6E453A;}
	.st33{fill:#FBAF50;}
	.st34{fill:#9E6F49;}
	.st35{fill:#8E603E;}
	.st36{fill:#F16474;}
	.st37{fill:#F05668;}
	.st38{fill:#BE455B;}
</style>
<path class="st0" d="M488,438.7"/>
<path class="st0" d="M42.7,420"/>
<g id="Layer_5">
	<path class="st1" d="M179.6,610.5l4.9,4.8c30.6,29.9,78.6,27.9,106.6-4.6l6.2-7.2l6.8,6.6c30.6,29.9,78.6,27.9,106.6-4.6l4.5-5.2
		c28-32.5,25.8-83.5-4.9-113.5l-6.8-6.6L287.1,366.7L180.9,489.9l-6.2,7.2C146.7,529.5,148.9,580.6,179.6,610.5z"/>
	<path class="st2" d="M558.3,341.1l2-6.6c12.5-41-11.3-82.6-53-92.6l-9.2-2.2l2.8-9c12.5-41-11.3-82.6-53-92.6l-6.7-1.6
		c-41.7-10-86,15.4-98.6,56.4l-2.8,9l-47.6,155.6l158.2,37.8l9.2,2.2C501.4,407.4,545.8,382,558.3,341.1z"/>
	<path class="st3" d="M181.6,116.4l-6.9,0.2c-42.8,1.1-74.8,36.9-71.1,79.5l0.8,9.4l-9.5,0.2c-42.8,1.1-74.8,36.9-71.1,79.5l0.6,6.9
		c3.7,42.7,41.9,76.7,84.7,75.7l9.5-0.2l162.6-4l-14.2-162.1l-0.8-9.4C262.5,149.3,224.4,115.3,181.6,116.4z"/>
	<g>
		<g>
			<path class="st4" d="M299.6,373.5c51.4,18.7,99.4,46.7,140.5,82.8c49.5,43.4,88.8,98,114,158.9c8.7,21.1,15.8,43,21.1,65.2
				c0.9,3.8,15.6,1.9,15-0.7c-11.3-47.4-30.6-92.8-56.9-133.9c-37.3-58.2-88.8-106.7-148.5-141.4c-23.1-13.4-47.3-24.7-72.4-33.8
				c-3.2-1.2-7-1.2-10.3-0.4C301,370.4,296.4,372.3,299.6,373.5L299.6,373.5z"/>
		</g>
	</g>
</g>
<g id="Layer_4">
	<g>
		<rect x="113.1" y="217.2" class="st5" width="99.5" height="99.5"/>
		<rect x="113.1" y="217.2" class="st6" width="99.5" height="20.6"/>
		<circle class="st7" cx="123.4" cy="227.5" r="5.1"/>
		<circle class="st8" cx="138.8" cy="227.5" r="5.1"/>
		<circle class="st9" cx="154.3" cy="227.5" r="5.1"/>
		<rect x="113.1" y="237.8" class="st10" width="12" height="78.9"/>
		<g>
			<path class="st11" d="M118.2,248.1h1.7c0.9,0,1.7-0.8,1.7-1.7s-0.8-1.7-1.7-1.7h-1.7c-0.9,0-1.7,0.8-1.7,1.7
				S117.3,248.1,118.2,248.1z"/>
			<path class="st11" d="M120,251.5h-1.7c-0.9,0-1.7,0.8-1.7,1.7s0.8,1.7,1.7,1.7h1.7c0.9,0,1.7-0.8,1.7-1.7S120.9,251.5,120,251.5z
				"/>
			<path class="st11" d="M120,258.4h-1.7c-0.9,0-1.7,0.8-1.7,1.7c0,0.9,0.8,1.7,1.7,1.7h1.7c0.9,0,1.7-0.8,1.7-1.7
				C121.7,259.2,120.9,258.4,120,258.4z"/>
			<path class="st11" d="M120,265.2h-1.7c-0.9,0-1.7,0.8-1.7,1.7s0.8,1.7,1.7,1.7h1.7c0.9,0,1.7-0.8,1.7-1.7S120.9,265.2,120,265.2z
				"/>
			<path class="st11" d="M120,272.1h-1.7c-0.9,0-1.7,0.8-1.7,1.7c0,0.9,0.8,1.7,1.7,1.7h1.7c0.9,0,1.7-0.8,1.7-1.7
				C121.7,272.9,120.9,272.1,120,272.1z"/>
			<path class="st11" d="M120,279h-1.7c-0.9,0-1.7,0.8-1.7,1.7s0.8,1.7,1.7,1.7h1.7c0.9,0,1.7-0.8,1.7-1.7S120.9,279,120,279z"/>
			<path class="st11" d="M120,285.8h-1.7c-0.9,0-1.7,0.8-1.7,1.7c0,0.9,0.8,1.7,1.7,1.7h1.7c0.9,0,1.7-0.8,1.7-1.7
				C121.7,286.6,120.9,285.8,120,285.8z"/>
			<path class="st11" d="M120,292.7h-1.7c-0.9,0-1.7,0.8-1.7,1.7s0.8,1.7,1.7,1.7h1.7c0.9,0,1.7-0.8,1.7-1.7S120.9,292.7,120,292.7z
				"/>
			<path class="st11" d="M120,299.6h-1.7c-0.9,0-1.7,0.8-1.7,1.7s0.8,1.7,1.7,1.7h1.7c0.9,0,1.7-0.8,1.7-1.7S120.9,299.6,120,299.6z
				"/>
			<path class="st11" d="M120,306.4h-1.7c-0.9,0-1.7,0.8-1.7,1.7c0,0.9,0.8,1.7,1.7,1.7h1.7c0.9,0,1.7-0.8,1.7-1.7
				C121.7,307.2,120.9,306.4,120,306.4z"/>
		</g>
		<path class="st12" d="M156,248.1h-22.3c-0.9,0-1.7-0.8-1.7-1.7s0.8-1.7,1.7-1.7H156c0.9,0,1.7,0.8,1.7,1.7S156.9,248.1,156,248.1z
			"/>
		<path class="st8" d="M180,248.1h-17.2c-0.9,0-1.7-0.8-1.7-1.7s0.8-1.7,1.7-1.7H180c0.9,0,1.7,0.8,1.7,1.7S181,248.1,180,248.1z"/>
		<path class="st9" d="M190.3,248.1h-3.4c-0.9,0-1.7-0.8-1.7-1.7s0.8-1.7,1.7-1.7h3.4c0.9,0,1.7,0.8,1.7,1.7
			S191.3,248.1,190.3,248.1z"/>
		<path class="st12" d="M198.9,255h-25.7c-0.9,0-1.7-0.8-1.7-1.7s0.8-1.7,1.7-1.7h25.7c0.9,0,1.7,0.8,1.7,1.7S199.8,255,198.9,255z"
			/>
		<path class="st13" d="M166.3,255h-24c-0.9,0-1.7-0.8-1.7-1.7s0.8-1.7,1.7-1.7h24c0.9,0,1.7,0.8,1.7,1.7S167.2,255,166.3,255z"/>
		<path class="st13" d="M135.4,255h-1.7c-0.9,0-1.7-0.8-1.7-1.7s0.8-1.7,1.7-1.7h1.7c0.9,0,1.7,0.8,1.7,1.7S136.4,255,135.4,255z"/>
		<path class="st12" d="M149.1,261.8h-15.4c-0.9,0-1.7-0.8-1.7-1.7c0-0.9,0.8-1.7,1.7-1.7h15.4c0.9,0,1.7,0.8,1.7,1.7
			C150.9,261.1,150.1,261.8,149.1,261.8z"/>
		<path class="st8" d="M159.4,261.8H156c-0.9,0-1.7-0.8-1.7-1.7c0-0.9,0.8-1.7,1.7-1.7h3.4c0.9,0,1.7,0.8,1.7,1.7
			C161.1,261.1,160.4,261.8,159.4,261.8z"/>
		<path class="st9" d="M190.3,261.8h-24c-0.9,0-1.7-0.8-1.7-1.7c0-0.9,0.8-1.7,1.7-1.7h24c0.9,0,1.7,0.8,1.7,1.7
			C192,261.1,191.3,261.8,190.3,261.8z"/>
		<path class="st8" d="M156,268.7h-22.3c-0.9,0-1.7-0.8-1.7-1.7s0.8-1.7,1.7-1.7H156c0.9,0,1.7,0.8,1.7,1.7S156.9,268.7,156,268.7z"
			/>
		<path class="st9" d="M180,268.7h-17.2c-0.9,0-1.7-0.8-1.7-1.7s0.8-1.7,1.7-1.7H180c0.9,0,1.7,0.8,1.7,1.7S181,268.7,180,268.7z"/>
		<path class="st8" d="M186.9,275.5h-13.7c-0.9,0-1.7-0.8-1.7-1.7c0-0.9,0.8-1.7,1.7-1.7h13.7c0.9,0,1.7,0.8,1.7,1.7
			C188.6,274.8,187.8,275.5,186.9,275.5z"/>
		<path class="st12" d="M166.3,275.5h-24c-0.9,0-1.7-0.8-1.7-1.7c0-0.9,0.8-1.7,1.7-1.7h24c0.9,0,1.7,0.8,1.7,1.7
			C168,274.8,167.2,275.5,166.3,275.5z"/>
		<path class="st9" d="M135.4,275.5h-1.7c-0.9,0-1.7-0.8-1.7-1.7c0-0.9,0.8-1.7,1.7-1.7h1.7c0.9,0,1.7,0.8,1.7,1.7
			C137.1,274.8,136.4,275.5,135.4,275.5z"/>
		<path class="st8" d="M149.1,282.4h-15.4c-0.9,0-1.7-0.8-1.7-1.7s0.8-1.7,1.7-1.7h15.4c0.9,0,1.7,0.8,1.7,1.7
			S150.1,282.4,149.1,282.4z"/>
		<path class="st12" d="M159.4,282.4H156c-0.9,0-1.7-0.8-1.7-1.7s0.8-1.7,1.7-1.7h3.4c0.9,0,1.7,0.8,1.7,1.7
			S160.4,282.4,159.4,282.4z"/>
		<path class="st13" d="M192,282.4h-25.7c-0.9,0-1.7-0.8-1.7-1.7s0.8-1.7,1.7-1.7H192c0.9,0,1.7,0.8,1.7,1.7S193,282.4,192,282.4z"
			/>
		<path class="st12" d="M156,289.3h-22.3c-0.9,0-1.7-0.8-1.7-1.7c0-0.9,0.8-1.7,1.7-1.7H156c0.9,0,1.7,0.8,1.7,1.7
			C157.7,288.5,156.9,289.3,156,289.3z"/>
		<path class="st9" d="M180,289.3h-17.2c-0.9,0-1.7-0.8-1.7-1.7c0-0.9,0.8-1.7,1.7-1.7H180c0.9,0,1.7,0.8,1.7,1.7
			C181.7,288.5,181,289.3,180,289.3z"/>
		<path class="st13" d="M198.9,289.3h-12c-0.9,0-1.7-0.8-1.7-1.7c0-0.9,0.8-1.7,1.7-1.7h12c0.9,0,1.7,0.8,1.7,1.7
			C200.6,288.5,199.8,289.3,198.9,289.3z"/>
		<path class="st12" d="M180,296.1h-6.9c-0.9,0-1.7-0.8-1.7-1.7s0.8-1.7,1.7-1.7h6.9c0.9,0,1.7,0.8,1.7,1.7S181,296.1,180,296.1z"/>
		<path class="st13" d="M166.3,296.1h-24c-0.9,0-1.7-0.8-1.7-1.7s0.8-1.7,1.7-1.7h24c0.9,0,1.7,0.8,1.7,1.7S167.2,296.1,166.3,296.1
			z"/>
		<path class="st8" d="M135.4,296.1h-1.7c-0.9,0-1.7-0.8-1.7-1.7s0.8-1.7,1.7-1.7h1.7c0.9,0,1.7,0.8,1.7,1.7
			S136.4,296.1,135.4,296.1z"/>
		<path class="st9" d="M149.1,303h-15.4c-0.9,0-1.7-0.8-1.7-1.7s0.8-1.7,1.7-1.7h15.4c0.9,0,1.7,0.8,1.7,1.7S150.1,303,149.1,303z"
			/>
		<path class="st12" d="M159.4,303H156c-0.9,0-1.7-0.8-1.7-1.7s0.8-1.7,1.7-1.7h3.4c0.9,0,1.7,0.8,1.7,1.7S160.4,303,159.4,303z"/>
		<path class="st13" d="M178.3,303h-12c-0.9,0-1.7-0.8-1.7-1.7s0.8-1.7,1.7-1.7h12c0.9,0,1.7,0.8,1.7,1.7S179.3,303,178.3,303z"/>
		<path class="st8" d="M186.9,303h-1.7c-0.9,0-1.7-0.8-1.7-1.7s0.8-1.7,1.7-1.7h1.7c0.9,0,1.7,0.8,1.7,1.7S187.8,303,186.9,303z"/>
	</g>
</g>
<g id="Layer_3">
	<g>
		<g>
			<g>
				<path class="st14" d="M448.3,312.4h-52c-1.1,0-2-0.9-2-2c0-1.1,0.9-2,2-2h52c1.1,0,2,0.9,2,2
					C450.3,311.5,449.4,312.4,448.3,312.4z"/>
			</g>
		</g>
		<g>
			<path class="st15" d="M448.3,212.1c-0.1-1-1-1.8-2-1.8h-8.1c-0.6,0-1.1,0.2-1.5,0.7c-0.4,0.4-0.6,1-0.5,1.6l1.1,10
				c0.1,1,1,1.8,2,1.8h8.1c0.6,0,1.1-0.2,1.5-0.7c0.4-0.4,0.6-1,0.5-1.6L448.3,212.1z"/>
		</g>
		<g>
			<path class="st15" d="M456.6,286.1c-0.1-1-1-1.8-2-1.8h-8.1c-0.6,0-1.1,0.2-1.5,0.7c-0.4,0.4-0.6,1-0.5,1.6l5.6,50
				c0.1,1,1,1.8,2,1.8h8.1c0.6,0,1.1-0.2,1.5-0.7c0.4-0.4,0.6-1,0.5-1.6L456.6,286.1z"/>
		</g>
		<g>
			<path class="st15" d="M407.8,211c-0.4-0.4-0.9-0.7-1.5-0.7h-8.1c-1,0-1.9,0.8-2,1.8l-1.1,10c-0.1,0.6,0.1,1.1,0.5,1.6
				c0.4,0.4,0.9,0.7,1.5,0.7h8.1c1,0,1.9-0.8,2-1.8l1.1-10C408.4,212,408.2,211.4,407.8,211z"/>
		</g>
		<g>
			<path class="st15" d="M399.4,285c-0.4-0.4-0.9-0.7-1.5-0.7h-8.1c-1,0-1.9,0.8-2,1.8l-5.6,50c-0.1,0.6,0.1,1.1,0.5,1.6
				c0.4,0.4,0.9,0.7,1.5,0.7h8.1c1,0,1.9-0.8,2-1.8l5.6-50C400,286,399.8,285.4,399.4,285z"/>
		</g>
		<g>
			<path class="st16" d="M468.3,220.4h-92c-2.2,0-4,1.8-4,4v60c0,2.2,1.8,4,4,4h92c2.2,0,4-1.8,4-4v-60
				C472.3,222.1,470.5,220.4,468.3,220.4z"/>
		</g>
		<g>
			<g>
				<path class="st14" d="M472.3,296.4h-100c-1.1,0-2-0.9-2-2c0-1.1,0.9-2,2-2h100c1.1,0,2,0.9,2,2
					C474.3,295.5,473.4,296.4,472.3,296.4z"/>
			</g>
		</g>
		<g>
			<g>
				<path class="st14" d="M394.3,338.4h-14c-1.1,0-2-0.9-2-2c0-1.1,0.9-2,2-2h14c1.1,0,2,0.9,2,2
					C396.3,337.5,395.4,338.4,394.3,338.4z"/>
			</g>
		</g>
		<g>
			<g>
				<path class="st14" d="M464.3,338.4h-14c-1.1,0-2-0.9-2-2c0-1.1,0.9-2,2-2h14c1.1,0,2,0.9,2,2
					C466.3,337.5,465.4,338.4,464.3,338.4z"/>
			</g>
		</g>
		<g>
			<g>
				<path class="st17" d="M444.3,236.4h-26c-0.9,0-1.6,0.6-1.9,1.4l-8.3,26.6l-5.9-14.8c-0.3-0.8-1-1.3-1.9-1.3h-8c-1.1,0-2,0.9-2,2
					s0.9,2,2,2h6.6l7.5,18.7c0.3,0.8,1,1.3,1.9,1.3c0,0,0.1,0,0.1,0c0.8,0,1.6-0.6,1.8-1.4l9.6-30.6h24.5c1.1,0,2-0.9,2-2
					S445.4,236.4,444.3,236.4z"/>
			</g>
			<g>
				<path class="st17" d="M441.5,246.7c-0.9-0.7-2.1-0.5-2.8,0.4l-6.4,8.8l-6.4-8.8c-0.6-0.9-1.9-1.1-2.8-0.4
					c-0.9,0.6-1.1,1.9-0.4,2.8l7.1,9.8l-7.1,9.8c-0.7,0.9-0.5,2.1,0.4,2.8c0.4,0.3,0.8,0.4,1.2,0.4c0.6,0,1.2-0.3,1.6-0.8l6.4-8.8
					l6.4,8.8c0.4,0.5,1,0.8,1.6,0.8c0.4,0,0.8-0.1,1.2-0.4c0.9-0.6,1.1-1.9,0.4-2.8l-7.1-9.8l7.1-9.8
					C442.6,248.6,442.4,247.4,441.5,246.7z"/>
			</g>
		</g>
	</g>
</g>
<g id="Layer_2">
	<g>
		<path class="st18" d="M381.4,547.4l-1.7-13.7c-0.3-2.1-1.7-3.8-3.7-4.5l-6.6-2.2c-0.9-0.3-1.9-0.1-2.6,0.5l-1.9-0.6
			c-1.1-0.4-1.9-1.4-1.9-2.6v-4.4l5.8-2.4c3-1.3,5-4.2,5-7.5v-1.4c2.2,0,4.1-1.8,4.1-4.1c0-1.1-0.4-2.1-1.2-2.9l1.4-11.4
			c0.7-5.3-1.8-10.6-6.4-13.4c-2.2-1.4-4.7-2.1-7.3-2.1c0,0-19.4,0-19.5,0c-2.8,0.1-5.3,1.7-6.6,4.1H338c-4,0-7.4,3.4-6.9,7.4
			c0,0,0,0.1,0,0.1l1.9,15.4c-0.7,0.7-1.2,1.7-1.2,2.9c0,2.2,1.8,4.1,4.1,4.1v1.4c0,3.3,2,6.2,5,7.5l5.8,2.4v4.4
			c0,1.2-0.7,2.2-1.9,2.6l-1.9,0.6c-0.7-0.6-1.7-0.8-2.6-0.5l-6.6,2.2c-2,0.7-3.4,2.4-3.7,4.5l-1.7,13.7c-0.3,2.4,1.6,4.6,4,4.6h0
			h44.9h0C379.8,552,381.7,549.8,381.4,547.4z"/>
		<path class="st19" d="M346.8,524.3C346.8,524.3,346.8,524.3,346.8,524.3c0,0.1,0,0.1,0,0.2c0,0,0,0.1,0,0.1c0,0,0,0.1,0,0.1
			c0,0.1,0,0.1,0,0.2c0,0,0,0,0,0c-0.2,0.7-0.6,1.4-1.3,1.8c11.3,2,17.6-6.8,17.6-6.8h-16.3V524.3L346.8,524.3z"/>
		<path class="st20" d="M371.8,476.8c-2.2-1.4-4.7-2.1-7.3-2.1h-0.1v28.5h12.2l1.6-12.9C378.9,484.9,376.4,479.7,371.8,476.8z"/>
		<g>
			<path class="st21" d="M331.1,486.2C331.1,486.2,331.1,486.2,331.1,486.2l2.1,17h8.1v-24.4H338C334,478.8,330.6,482.2,331.1,486.2
				z"/>
		</g>
		<path class="st22" d="M373.9,500.5v-2.7c0-3.7-3-6.8-6.8-6.8h-24.4c-3.7,0-6.8,3-6.8,6.8v2.7c-2.2,0-4.1,1.8-4.1,4.1
			c0,2.2,1.8,4.1,4.1,4.1v1.4c0,3.3,2,6.2,5,7.5l8.8,3.6c1.7,0.7,3.4,1,5.2,1l0,0c1.8,0,3.6-0.4,5.2-1l8.8-3.6c3-1.3,5-4.2,5-7.5
			v-1.4c2.2,0,4.1-1.8,4.1-4.1C377.9,502.3,376.1,500.5,373.9,500.5z"/>
		<g>
			<path class="st21" d="M345.4,505.9L345.4,505.9c-0.7,0-1.4-0.6-1.4-1.4v-1.4c0-0.7,0.6-1.4,1.4-1.4l0,0c0.7,0,1.4,0.6,1.4,1.4
				v1.4C346.8,505.3,346.2,505.9,345.4,505.9z"/>
		</g>
		<g>
			<path class="st21" d="M364.4,505.9L364.4,505.9c-0.7,0-1.4-0.6-1.4-1.4v-1.4c0-0.7,0.6-1.4,1.4-1.4l0,0c0.7,0,1.4,0.6,1.4,1.4
				v1.4C365.7,505.3,365.1,505.9,364.4,505.9z"/>
		</g>
		<g>
			<g>
				<path class="st23" d="M354.9,515.4c-2.4,0-4.7-0.6-6.2-1.6c-0.6-0.4-0.8-1.3-0.4-1.9c0.4-0.6,1.3-0.8,1.9-0.4
					c1.1,0.7,2.8,1.2,4.7,1.2s3.6-0.4,4.7-1.2c0.6-0.4,1.5-0.3,1.9,0.4c0.4,0.6,0.3,1.5-0.4,1.9
					C359.6,514.8,357.3,515.4,354.9,515.4z"/>
			</g>
		</g>
		<path class="st18" d="M367.1,491h-24.4c-0.5,0-0.9,0-1.4,0.1v0c-3.1,0.6-5.4,3.4-5.4,6.6v2.7c-2.2,0-4.1,1.8-4.1,4.1
			s1.8,4.1,4.1,4.1v1.4c0,3.3,2,6.2,5,7.5l8.8,3.6c0.4,0.2,0.9,0.3,1.3,0.5c-3.9-2.8-6.4-5.3-8-6.9c-1.1-1.2-1.7-2.7-1.7-4.3v-15.4
			c7.5,6,23.8,5.5,32.5,5.5v-2.7C373.9,494,370.8,491,367.1,491z"/>
		<path class="st20" d="M364.4,474.7h-19c-4.5,0-8.1,3.6-8.1,8.1l0,0c0,7.8,7.5,12.6,13.6,14.9c0,0-0.7-1.2-1.6-3.1
			c5.4,1.8,13.8,3.1,25.1,3.1c0,0,0-2.9,0-3.9C374.4,474.1,364.4,474.7,364.4,474.7z"/>
		<path class="st20" d="M373.9,499.1H367c0,0,0,0,0,0c-0.8-0.4-1.7-0.7-2.6-0.7c-2.5,0-4.6,1.7-5.2,4c-0.8-1.6-2.4-2.6-4.3-2.6
			c-1.9,0-3.5,1.1-4.3,2.6c-0.6-2.3-2.7-4-5.2-4c-0.9,0-1.8,0.2-2.6,0.7h-6.9c-0.4,0-0.7,0.3-0.7,0.7s0.3,0.7,0.7,0.7h5.3
			c-0.7,0.9-1.2,2.1-1.2,3.4c0,3,2.4,5.4,5.4,5.4c2.5,0,4.7-1.7,5.3-4.1c0.1,0,0.1,0,0.2,0c0.4,0,0.7-0.3,0.7-0.7
			c0-1.9,1.5-3.4,3.4-3.4s3.4,1.5,3.4,3.4c0,0.4,0.3,0.7,0.7,0.7c0.1,0,0.1,0,0.2,0c0.6,2.3,2.7,4.1,5.3,4.1c3,0,5.4-2.4,5.4-5.4
			c0-1.3-0.4-2.5-1.2-3.4h5.3c0.4,0,0.7-0.3,0.7-0.7S374.3,499.1,373.9,499.1z M345.4,507.9c-2.2,0-4.1-1.8-4.1-4.1
			c0-2.2,1.8-4.1,4.1-4.1c2.2,0,4.1,1.8,4.1,4.1C349.5,506.1,347.6,507.9,345.4,507.9z M364.4,507.9c-2.2,0-4.1-1.8-4.1-4.1
			c0-2.2,1.8-4.1,4.1-4.1c2.2,0,4.1,1.8,4.1,4.1C368.4,506.1,366.6,507.9,364.4,507.9z"/>
		<path class="st24" d="M354.9,535.4c5.5,0,10.3-3.1,12.8-7.6l-2.8-0.9c-0.3-0.1-0.5-0.2-0.7-0.4c-1.9,3.1-5.3,5.2-9.2,5.2
			s-7.3-2.1-9.2-5.2c-0.2,0.2-0.5,0.3-0.7,0.4l-2.8,0.9C344.6,532.3,349.4,535.4,354.9,535.4z"/>
		<g>
			<path class="st25" d="M381.4,547.4l-1.7-13.7c-0.3-2.1-1.7-3.8-3.7-4.5l-6.6-2.2c-1.2-0.4-2.4,0-3.1,1.1
				c-2.4,3.8-6.6,6.3-11.4,6.3c-4.8,0-9-2.5-11.4-6.3c-0.7-1-1.9-1.4-3.1-1.1l-6.6,2.2c-2,0.7-3.4,2.4-3.7,4.5l-1.7,13.7
				c-0.3,2.4,1.6,4.6,4,4.6h45C379.8,552,381.7,549.8,381.4,547.4z"/>
		</g>
		<g>
			<path class="st26" d="M331.2,531c-0.6,0.8-1,1.7-1.1,2.7l-1.7,13.7c-0.3,2.4,1.6,4.6,4,4.6h7.6v-8.8c0-1.3-0.5-2.6-1.3-3.5
				L331.2,531z"/>
		</g>
		<g>
			<path class="st26" d="M378.6,531c0.6,0.8,1,1.7,1.1,2.7l1.7,13.7c0.3,2.4-1.6,4.6-4,4.6h-7.6v-8.8c0-1.3,0.5-2.6,1.3-3.5
				L378.6,531z"/>
		</g>
	</g>
	<g>
		<g>
			<rect x="211.4" y="514.9" class="st27" width="34.9" height="14.9"/>
		</g>
		<path class="st28" d="M254,547.6l-1.6-11.7c-0.1-1.1-0.6-2.1-1.2-3c0.3-0.6,0.1-1.4-0.5-1.7l-4.5-2.7c-0.6-0.4-1.5-0.2-1.8,0.4
			l-0.1,0.1l-5.5-2c-1.1-0.4-1.9-1.4-1.9-2.6v-4.4l5.8-2.4c3-1.3,5-4.2,5-7.5V498c0-3.7-3-6.8-6.8-6.8h-24.4c-3.7,0-6.8,3-6.8,6.8
			v12.2c0,3.3,2,6.2,5,7.5l5.8,2.4v4.4c0,1.2-0.7,2.2-1.9,2.6l-5.5,2l-0.1-0.1c-0.4-0.6-1.2-0.8-1.8-0.4l-4.5,2.7
			c-0.6,0.4-0.8,1.1-0.5,1.7c-0.6,0.9-1,1.9-1.2,3l-1.6,11.7c-0.3,2.4,1.6,4.6,4,4.6H250C252.5,552.2,254.4,550,254,547.6z"/>
		<g>
			<path class="st29" d="M237,520.1l-16.3-3.6v8c0,1-0.5,1.8-1.4,2.3C230.8,528.8,237,520.1,237,520.1z"/>
		</g>
		<g>
			<path class="st19" d="M242.9,517.7l-8.8,3.6c-1.7,0.7-3.4,1-5.2,1l0,0c-1.8,0-3.6-0.4-5.2-1l-8.8-3.6c-3-1.3-5-4.2-5-7.5V498
				c0-3.7,3-6.8,6.8-6.8h24.4c3.7,0,6.8,3,6.8,6.8v12.2C247.9,513.5,245.9,516.4,242.9,517.7z"/>
		</g>
		<g>
			<path class="st21" d="M219.4,506.1L219.4,506.1c-0.7,0-1.4-0.6-1.4-1.4v-1.4c0-0.7,0.6-1.4,1.4-1.4l0,0c0.7,0,1.4,0.6,1.4,1.4
				v1.4C220.8,505.5,220.2,506.1,219.4,506.1z"/>
		</g>
		<g>
			<path class="st21" d="M238.4,506.1L238.4,506.1c-0.7,0-1.4-0.6-1.4-1.4v-1.4c0-0.7,0.6-1.4,1.4-1.4l0,0c0.7,0,1.4,0.6,1.4,1.4
				v1.4C239.7,505.5,239.1,506.1,238.4,506.1z"/>
		</g>
		<g>
			<g>
				<path class="st29" d="M228.9,515.6c-2.4,0-4.7-0.6-6.2-1.6c-0.6-0.4-0.8-1.3-0.4-1.9c0.4-0.6,1.3-0.8,1.9-0.4
					c1.1,0.7,2.8,1.2,4.7,1.2s3.6-0.4,4.7-1.2c0.6-0.4,1.5-0.3,1.9,0.4c0.4,0.6,0.3,1.5-0.4,1.9C233.6,515,231.3,515.6,228.9,515.6z
					"/>
			</g>
		</g>
		<g>
			<path class="st28" d="M223.7,521.3c0.4,0.2,0.9,0.3,1.3,0.5c-3.9-2.8-6.4-5.3-8-6.9c-1.1-1.2-1.7-2.7-1.7-4.3v-19.2
				c-3.1,0.6-5.4,3.4-5.4,6.6v12.2c0,3.3,2,6.2,5,7.5L223.7,521.3z"/>
		</g>
		<g>
			<path class="st30" d="M244.5,528.9l-4.9,7.8c-0.7,1.2-2,1.9-3.4,1.9h-14.5c-1.4,0-2.7-0.7-3.4-1.9l-4.9-7.8
				c-0.4-0.6-1.2-0.8-1.8-0.4l-4.5,2.7c-0.6,0.4-0.9,1.2-0.5,1.9l6,9.7h32.5l6-9.7c0.4-0.6,0.2-1.5-0.5-1.9l-4.5-2.7
				C245.7,528.1,244.8,528.3,244.5,528.9z"/>
		</g>
		<g>
			<rect x="212.6" y="542.7" class="st31" width="32.5" height="9.5"/>
		</g>
		<g>
			<path class="st32" d="M251,492.8c-2.4-12.1-11-19.2-22.1-19.2c-11.1,0-19.7,7.1-22.1,19.2c-2.6,12.7-3.7,31.7-3.7,48.6l9.5,2.7
				c0-13.3,0.9-37,1.2-44.8c8.3-0.3,25.9-1.7,29.9-6.7c0,0,1.4,35.4,1.4,51.5l9.5-2.7C254.6,524.5,253.5,505.5,251,492.8z"/>
		</g>
		<g>
			<g>
				<path class="st27" d="M221.7,492.8c1.9-9.2,7.3-15.5,14.6-18c-2.3-0.8-4.8-1.2-7.5-1.2c-11.1,0-19.7,7.1-22.1,19.2
					c-2.6,12.7-3.7,31.7-3.7,48.6l9.5,2.7c0-13.3,0.9-37,1.2-44.8c1.9-0.1,4.2-0.2,6.8-0.4C221,496.7,221.3,494.7,221.7,492.8z"/>
			</g>
		</g>
		<g>
			<path class="st30" d="M250.6,493.9h-43.4c-0.7,0-1.2-0.6-1-1.3l0.8-3.3c0.1-0.5,0.5-0.8,1-0.8h41.7c0.5,0,0.9,0.3,1,0.8l0.8,3.3
				C251.8,493.3,251.3,493.9,250.6,493.9z"/>
		</g>
		<g>
			<path class="st33" d="M216,492.6l0.8-3.3c0.1-0.5,0.5-0.8,1-0.8H208c-0.5,0-0.9,0.3-1,0.8l-0.8,3.3c-0.2,0.7,0.3,1.3,1,1.3h9.8
				C216.3,493.9,215.8,493.3,216,492.6z"/>
		</g>
		<g>
			<g>
				<g>
					<path class="st33" d="M244.5,491.1c0,1.8-3.7,3.3-5.5,3.3c-1.8,0-3.3-1.5-3.3-3.3c0-1.8,1.5-3.3,3.3-3.3
						C240.8,487.8,244.5,489.3,244.5,491.1z"/>
				</g>
			</g>
			<g>
				<g>
					<path class="st33" d="M244.5,491.1c0-1.8,3.7-3.3,5.5-3.3c1.8,0,3.3,1.5,3.3,3.3c0,1.8-1.5,3.3-3.3,3.3
						C248.2,494.5,244.5,493,244.5,491.1z"/>
				</g>
			</g>
			<g>
				<g>
					<path class="st31" d="M244.5,491.1c1.6,0.9,1,4.8,0.1,6.4c-0.9,1.6-2.9,2.1-4.5,1.2c-1.6-0.9-2.1-2.9-1.2-4.5
						C239.8,492.7,242.9,490.2,244.5,491.1z"/>
				</g>
			</g>
			<g>
				<g>
					<path class="st31" d="M244.5,491.1c-1.6-0.9-1-4.8-0.1-6.4s2.9-2.1,4.5-1.2c1.6,0.9,2.1,2.9,1.2,4.5
						C249.2,489.6,246.1,492.1,244.5,491.1z"/>
				</g>
			</g>
			<g>
				<g>
					<path class="st30" d="M244.5,491.1c-1.6,0.9-1,4.8-0.1,6.4c0.9,1.6,2.9,2.1,4.5,1.2c1.6-0.9,2.1-2.9,1.2-4.5
						C249.2,492.7,246.1,490.2,244.5,491.1z"/>
				</g>
			</g>
			<g>
				<g>
					<path class="st30" d="M244.5,491.1c1.6-0.9,1-4.8,0.1-6.4c-0.9-1.6-2.9-2.1-4.5-1.2c-1.6,0.9-2.1,2.9-1.2,4.5
						C239.8,489.6,242.9,492.1,244.5,491.1z"/>
				</g>
			</g>
			<g>
				<g>
					<circle class="st17" cx="244.5" cy="491.1" r="2.2"/>
				</g>
			</g>
		</g>
	</g>
	<g>
		<path class="st18" d="M322.6,541.5c-0.4-2.8-2.1-5.2-4.6-6.5l-3.6-1.8c-0.5-0.3-1.2,0-1.4,0.5L311,533c12.7-3.5,19.4-9.5,19.4-9.5
			c-6.7-13-4.9-32.8-10.2-44c-5.3-11.2-15.2-15.2-27.1-15.2s-21.8,4-27.1,15.2s-3.5,31-10.2,44c0,0,6.7,6.1,19.4,9.5l-1.8,0.7
			c-0.3-0.5-0.9-0.8-1.4-0.5l-3.3,1.7c-2.8,1.4-4.6,3.8-4.9,6.6l-0.1,0.6c0,0,0,0,0,0l-1.9,14.6c-0.4,3,2,5.8,5,5.8h52.8
			c3.1,0,5.4-2.7,5-5.8L322.6,541.5z"/>
		<g>
			<path class="st34" d="M320.3,479.4c-5.3-11.2-15.2-15.2-27.1-15.2s-21.8,4-27.1,15.2s-3.5,31-10.2,44c0,0,13.1,11.9,37.3,11.9
				s37.3-11.9,37.3-11.9C323.8,510.5,325.6,490.7,320.3,479.4z"/>
		</g>
		<path class="st35" d="M283,494.5c0-11.9,4.4-22.9,13.4-30.2c-1.1-0.1-2.1-0.1-3.2-0.1c-11.9,0-21.8,4-27.1,15.2s-3.5,31-10.2,44
			c0,0,9.6,8.4,27.1,11.1C283,534.6,283,503.8,283,494.5z"/>
		<g>
			<path class="st18" d="M322.6,542.1c-0.4-3.1-2.5-5.7-5.5-6.8l-11.5-4.2c-1.4-0.5-2.3-1.8-2.3-3.2v-11.1H283v11.1
				c0,1.5-0.9,2.8-2.3,3.2l-11.5,4.2c-2.9,1.1-5.1,3.7-5.5,6.8l-1.9,14.6c-0.4,3,2,5.8,5,5.8h52.8c3.1,0,5.4-2.7,5-5.8L322.6,542.1z
				"/>
			<path class="st19" d="M283,527.8c0,0.1,0,0.2,0,0.2c0,0,0,0.1,0,0.1c0,0,0,0.1,0,0.1c0,0.1,0,0.1,0,0.2c0,0,0,0,0,0
				c-0.2,0.9-0.8,1.7-1.6,2.2c14.2,2.4,22-8.4,22-8.4l-20.3-0.1V527.8L283,527.8L283,527.8z"/>
		</g>
		<path class="st22" d="M316.9,498.1v-3.4c0-4.7-3.8-8.5-8.5-8.5h-30.5c-4.7,0-8.5,3.8-8.5,8.5v3.4c-2.8,0-5.1,2.3-5.1,5.1
			c0,2.8,2.3,5.1,5.1,5.1v1.7c0,4.1,2.5,7.8,6.3,9.4l10.9,4.6c2.1,0.9,4.3,1.3,6.5,1.3l0,0c2.2,0,4.5-0.4,6.5-1.3l10.9-4.6
			c3.8-1.6,6.3-5.3,6.3-9.4v-1.7c2.8,0,5.1-2.3,5.1-5.1C322,500.4,319.7,498.1,316.9,498.1z"/>
		<path class="st18" d="M308,491.2v-4.4h-33.3c-3.1,1.3-5.3,4.3-5.3,7.8v3.4c-2.8,0-5.1,2.3-5.1,5.1c0,2.8,2.3,5.1,5.1,5.1v1.7
			c0,4.1,2.5,7.8,6.3,9.4l10.9,4.6c0.5,0.2,1.1,0.4,1.6,0.6c-4.8-3.5-8.1-6.6-9.9-8.7c-1.4-1.5-2.1-3.4-2.1-5.4v-12.3
			C281.7,497.9,299,497,308,491.2z"/>
		<g>
			<path class="st21" d="M281.3,504.9L281.3,504.9c-0.9,0-1.7-0.8-1.7-1.7v-1.7c0-0.9,0.8-1.7,1.7-1.7l0,0c0.9,0,1.7,0.8,1.7,1.7
				v1.7C283,504.1,282.2,504.9,281.3,504.9z"/>
		</g>
		<g>
			<path class="st21" d="M305,504.9L305,504.9c-0.9,0-1.7-0.8-1.7-1.7v-1.7c0-0.9,0.8-1.7,1.7-1.7l0,0c0.9,0,1.7,0.8,1.7,1.7v1.7
				C306.7,504.1,305.9,504.9,305,504.9z"/>
		</g>
		<g>
			<g>
				<path class="st23" d="M293.2,516.8c-3,0-5.8-0.7-7.7-2c-0.8-0.5-1-1.6-0.4-2.4c0.5-0.8,1.6-1,2.4-0.4c1.3,0.9,3.5,1.4,5.8,1.4
					s4.5-0.5,5.8-1.4c0.8-0.5,1.8-0.3,2.4,0.4c0.5,0.8,0.3,1.8-0.4,2.4C299,516,296.2,516.8,293.2,516.8z"/>
			</g>
		</g>
		<path class="st34" d="M272.8,494.7c0,0,10.8,1.1,16.9-1.7c0.9-0.4,3.4-5.9,3.4-5.9v7.6c0,0,7.8-0.4,15.9-3.7V485h-37.4
			C272.4,488.8,272.8,494.7,272.8,494.7z"/>
		<g>
			<path class="st36" d="M317.9,535l-3.6-1.8c-0.6-0.3-1.3,0-1.5,0.7c-2.3,8.6-10.2,15-19.6,15c-9.4,0-17.3-6.4-19.6-15
				c-0.2-0.7-0.9-1-1.5-0.7l-3.3,1.7c-2.8,1.4-4.6,3.8-4.9,6.6l-2,15.2c-0.4,3,2,5.8,5,5.8h52.8c3.1,0,5.4-2.7,5-5.8l-2-15.2
				C322.2,538.7,320.5,536.3,317.9,535z"/>
		</g>
		<g>
			<path class="st37" d="M264.5,539c-0.4,0.8-0.7,1.6-0.8,2.5l-2,15.2c-0.4,3,2,5.8,5,5.8h7.7v-6.8c0-2.2-0.7-4.3-2-6.1L264.5,539z"
				/>
		</g>
		<g>
			<path class="st37" d="M321.8,539c0.4,0.8,0.7,1.6,0.8,2.5l2,15.2c0.4,3-2,5.8-5,5.8h-7.7v-6.8c0-2.2,0.7-4.3,2-6.1L321.8,539z"/>
		</g>
		<g>
			<g>
				<path class="st38" d="M314.3,486.2c0,2.3-4.6,4.1-6.9,4.1s-4.1-1.8-4.1-4.1s1.8-4.1,4.1-4.1S314.3,483.9,314.3,486.2z"/>
			</g>
		</g>
		<g>
			<g>
				<path class="st38" d="M314.3,486.2c0-2.3,4.6-4.1,6.9-4.1c2.3,0,4.1,1.8,4.1,4.1s-1.8,4.1-4.1,4.1
					C318.9,490.3,314.3,488.4,314.3,486.2z"/>
			</g>
		</g>
		<g>
			<g>
				<path class="st36" d="M314.3,486.2c2,1.1,1.3,6,0.1,8c-1.1,2-3.7,2.7-5.6,1.5c-2-1.1-2.7-3.7-1.5-5.6
					C308.5,488.1,312.4,485,314.3,486.2z"/>
			</g>
		</g>
		<g>
			<g>
				<path class="st36" d="M314.3,486.2c-2-1.1-1.3-6-0.1-8c1.1-2,3.7-2.7,5.6-1.5c2,1.1,2.7,3.7,1.5,5.6
					C320.2,484.2,316.3,487.3,314.3,486.2z"/>
			</g>
		</g>
		<g>
			<g>
				<path class="st37" d="M314.3,486.2c-2,1.1-1.3,6-0.1,8c1.1,2,3.7,2.7,5.6,1.5c2-1.1,2.7-3.7,1.5-5.6
					C320.2,488.1,316.3,485,314.3,486.2z"/>
			</g>
		</g>
		<g>
			<g>
				<path class="st37" d="M314.3,486.2c2-1.1,1.3-6,0.1-8c-1.1-2-3.7-2.7-5.6-1.5c-2,1.1-2.7,3.7-1.5,5.6
					C308.5,484.2,312.4,487.3,314.3,486.2z"/>
			</g>
		</g>
		<g>
			<g>
				<circle class="st17" cx="314.3" cy="486.2" r="2.8"/>
			</g>
		</g>
		<path class="st35" d="M271.7,485c0.8,3.9,1.2,9.7,1.2,9.7s4.9,0.5,10,0c0-0.1,0-0.1,0-0.2c0-3.3,0.4-6.5,1.1-9.5H271.7z"/>
	</g>
</g>
</svg>
