<?xml version="1.0" encoding="utf-8"?>
<!-- Generator: Adobe Illustrator 20.0.0, SVG Export Plug-In . SVG Version: 6.00 Build 0)  -->
<svg version="1.1" id="Layer_1" xmlns="http://www.w3.org/2000/svg" xmlns:xlink="http://www.w3.org/1999/xlink" x="0px" y="0px"
	 viewBox="0 0 612 792" style="enable-background:new 0 0 612 792;" xml:space="preserve">
<style type="text/css">
	.st0{fill:#FFD7A3;}
	.st1{fill:#FDC98E;}
	.st2{fill:#744B3F;}
	.st3{fill:#634034;}
	.st4{fill:#FFE1B2;}
	.st5{fill:#E3B17C;}
	.st6{fill:#BA7E64;}
	.st7{fill:#FAA551;}
	.st8{fill:#F68B54;}
	.st9{fill:#5E352F;}
	.st10{fill:#F5B47B;}
	.st11{fill:#E3A172;}
	.st12{fill:#FFC94B;}
	.st13{fill:#FDDB47;}
	.st14{fill:#6E453A;}
	.st15{fill:#FBAF50;}
	.st16{fill:#FFFFFF;}
	.st17{fill:#9E6F49;}
	.st18{fill:#8E603E;}
	.st19{fill:#F16474;}
	.st20{fill:#F05668;}
	.st21{fill:#BE455B;}
</style>
<g>
	<path class="st0" d="M395.4,430.4l-1.7-13.7c-0.3-2.1-1.7-3.8-3.7-4.5l-6.6-2.2c-0.9-0.3-1.9-0.1-2.6,0.5l-1.9-0.6
		c-1.1-0.4-1.9-1.4-1.9-2.6v-4.4l5.8-2.4c3-1.3,5-4.2,5-7.5v-1.4c2.2,0,4.1-1.8,4.1-4.1c0-1.1-0.4-2.1-1.2-2.9l1.4-11.4
		c0.7-5.3-1.8-10.6-6.4-13.4c-2.2-1.4-4.7-2.1-7.3-2.1c0,0-19.4,0-19.5,0c-2.8,0.1-5.3,1.7-6.6,4.1H352c-4,0-7.4,3.4-6.9,7.4
		c0,0,0,0.1,0,0.1l1.9,15.4c-0.7,0.7-1.2,1.7-1.2,2.9c0,2.2,1.8,4.1,4.1,4.1v1.4c0,3.3,2,6.2,5,7.5l5.8,2.4v4.4
		c0,1.2-0.7,2.2-1.9,2.6l-1.9,0.6c-0.7-0.6-1.7-0.8-2.6-0.5l-6.6,2.2c-2,0.7-3.4,2.4-3.7,4.5l-1.7,13.7c-0.3,2.4,1.6,4.6,4,4.6h0
		h44.9h0C393.8,435,395.7,432.8,395.4,430.4z"/>
	<path class="st1" d="M360.8,407.3C360.8,407.3,360.8,407.3,360.8,407.3c0,0.1,0,0.1,0,0.2c0,0,0,0.1,0,0.1c0,0,0,0.1,0,0.1
		c0,0.1,0,0.1,0,0.2c0,0,0,0,0,0c-0.2,0.7-0.6,1.4-1.3,1.8c11.3,2,17.6-6.8,17.6-6.8h-16.3V407.3L360.8,407.3z"/>
	<path class="st2" d="M385.8,359.8c-2.2-1.4-4.7-2.1-7.3-2.1h-0.1v28.5h12.2l1.6-12.9C392.9,367.9,390.4,362.7,385.8,359.8z"/>
	<g>
		<path class="st3" d="M345.1,369.2C345.1,369.2,345.1,369.2,345.1,369.2l2.1,17h8.1v-24.4H352C348,361.8,344.6,365.2,345.1,369.2z"
			/>
	</g>
	<path class="st4" d="M387.9,383.5v-2.7c0-3.7-3-6.8-6.8-6.8h-24.4c-3.7,0-6.8,3-6.8,6.8v2.7c-2.2,0-4.1,1.8-4.1,4.1
		c0,2.2,1.8,4.1,4.1,4.1v1.4c0,3.3,2,6.2,5,7.5l8.8,3.6c1.7,0.7,3.4,1,5.2,1l0,0c1.8,0,3.6-0.4,5.2-1l8.8-3.6c3-1.3,5-4.2,5-7.5
		v-1.4c2.2,0,4.1-1.8,4.1-4.1C391.9,385.3,390.1,383.5,387.9,383.5z"/>
	<g>
		<path class="st3" d="M359.4,388.9L359.4,388.9c-0.7,0-1.4-0.6-1.4-1.4v-1.4c0-0.7,0.6-1.4,1.4-1.4l0,0c0.7,0,1.4,0.6,1.4,1.4v1.4
			C360.8,388.3,360.2,388.9,359.4,388.9z"/>
	</g>
	<g>
		<path class="st3" d="M378.4,388.9L378.4,388.9c-0.7,0-1.4-0.6-1.4-1.4v-1.4c0-0.7,0.6-1.4,1.4-1.4l0,0c0.7,0,1.4,0.6,1.4,1.4v1.4
			C379.7,388.3,379.1,388.9,378.4,388.9z"/>
	</g>
	<g>
		<g>
			<path class="st5" d="M368.9,398.4c-2.4,0-4.7-0.6-6.2-1.6c-0.6-0.4-0.8-1.3-0.4-1.9c0.4-0.6,1.3-0.8,1.9-0.4
				c1.1,0.7,2.8,1.2,4.7,1.2s3.6-0.4,4.7-1.2c0.6-0.4,1.5-0.3,1.9,0.4c0.4,0.6,0.3,1.5-0.4,1.9C373.6,397.8,371.3,398.4,368.9,398.4
				z"/>
		</g>
	</g>
	<path class="st0" d="M381.1,374h-24.4c-0.5,0-0.9,0-1.4,0.1v0c-3.1,0.6-5.4,3.4-5.4,6.6v2.7c-2.2,0-4.1,1.8-4.1,4.1
		s1.8,4.1,4.1,4.1v1.4c0,3.3,2,6.2,5,7.5l8.8,3.6c0.4,0.2,0.9,0.3,1.3,0.5c-3.9-2.8-6.4-5.3-8-6.9c-1.1-1.2-1.7-2.7-1.7-4.3v-15.4
		c7.5,6,23.8,5.5,32.5,5.5v-2.7C387.9,377,384.8,374,381.1,374z"/>
	<path class="st2" d="M378.4,357.7h-19c-4.5,0-8.1,3.6-8.1,8.1l0,0c0,7.8,7.5,12.6,13.6,14.9c0,0-0.7-1.2-1.6-3.1
		c5.4,1.8,13.8,3.1,25.1,3.1c0,0,0-2.9,0-3.9C388.4,357.1,378.4,357.7,378.4,357.7z"/>
	<path class="st2" d="M387.9,382.1H381c0,0,0,0,0,0c-0.8-0.4-1.7-0.7-2.6-0.7c-2.5,0-4.6,1.7-5.2,4c-0.8-1.6-2.4-2.6-4.3-2.6
		c-1.9,0-3.5,1.1-4.3,2.6c-0.6-2.3-2.7-4-5.2-4c-0.9,0-1.8,0.2-2.6,0.7h-6.9c-0.4,0-0.7,0.3-0.7,0.7s0.3,0.7,0.7,0.7h5.3
		c-0.7,0.9-1.2,2.1-1.2,3.4c0,3,2.4,5.4,5.4,5.4c2.5,0,4.7-1.7,5.3-4.1c0.1,0,0.1,0,0.2,0c0.4,0,0.7-0.3,0.7-0.7
		c0-1.9,1.5-3.4,3.4-3.4s3.4,1.5,3.4,3.4c0,0.4,0.3,0.7,0.7,0.7c0.1,0,0.1,0,0.2,0c0.6,2.3,2.7,4.1,5.3,4.1c3,0,5.4-2.4,5.4-5.4
		c0-1.3-0.4-2.5-1.2-3.4h5.3c0.4,0,0.7-0.3,0.7-0.7S388.3,382.1,387.9,382.1z M359.4,390.9c-2.2,0-4.1-1.8-4.1-4.1
		c0-2.2,1.8-4.1,4.1-4.1c2.2,0,4.1,1.8,4.1,4.1C363.5,389.1,361.6,390.9,359.4,390.9z M378.4,390.9c-2.2,0-4.1-1.8-4.1-4.1
		c0-2.2,1.8-4.1,4.1-4.1c2.2,0,4.1,1.8,4.1,4.1C382.4,389.1,380.6,390.9,378.4,390.9z"/>
	<path class="st6" d="M368.9,418.4c5.5,0,10.3-3.1,12.8-7.6l-2.8-0.9c-0.3-0.1-0.5-0.2-0.7-0.4c-1.9,3.1-5.3,5.2-9.2,5.2
		s-7.3-2.1-9.2-5.2c-0.2,0.2-0.5,0.3-0.7,0.4l-2.8,0.9C358.6,415.3,363.4,418.4,368.9,418.4z"/>
	<g>
		<path class="st7" d="M395.4,430.4l-1.7-13.7c-0.3-2.1-1.7-3.8-3.7-4.5l-6.6-2.2c-1.2-0.4-2.4,0-3.1,1.1c-2.4,3.8-6.6,6.3-11.4,6.3
			c-4.8,0-9-2.5-11.4-6.3c-0.7-1-1.9-1.4-3.1-1.1l-6.6,2.2c-2,0.7-3.4,2.4-3.7,4.5l-1.7,13.7c-0.3,2.4,1.6,4.6,4,4.6h45
			C393.8,435,395.7,432.8,395.4,430.4z"/>
	</g>
	<g>
		<path class="st8" d="M345.2,414c-0.6,0.8-1,1.7-1.1,2.7l-1.7,13.7c-0.3,2.4,1.6,4.6,4,4.6h7.6v-8.8c0-1.3-0.5-2.6-1.3-3.5
			L345.2,414z"/>
	</g>
	<g>
		<path class="st8" d="M392.6,414c0.6,0.8,1,1.7,1.1,2.7l1.7,13.7c0.3,2.4-1.6,4.6-4,4.6h-7.6v-8.8c0-1.3,0.5-2.6,1.3-3.5L392.6,414
			z"/>
	</g>
</g>
<g>
	<g>
		<rect x="225.4" y="397.9" class="st9" width="34.9" height="14.9"/>
	</g>
	<path class="st10" d="M268,430.6l-1.6-11.7c-0.1-1.1-0.6-2.1-1.2-3c0.3-0.6,0.1-1.4-0.5-1.7l-4.5-2.7c-0.6-0.4-1.5-0.2-1.8,0.4
		l-0.1,0.1l-5.5-2c-1.1-0.4-1.9-1.4-1.9-2.6v-4.4l5.8-2.4c3-1.3,5-4.2,5-7.5V381c0-3.7-3-6.8-6.8-6.8h-24.4c-3.7,0-6.8,3-6.8,6.8
		v12.2c0,3.3,2,6.2,5,7.5l5.8,2.4v4.4c0,1.2-0.7,2.2-1.9,2.6l-5.5,2l-0.1-0.1c-0.4-0.6-1.2-0.8-1.8-0.4l-4.5,2.7
		c-0.6,0.4-0.8,1.1-0.5,1.7c-0.6,0.9-1,1.9-1.2,3l-1.6,11.7c-0.3,2.4,1.6,4.6,4,4.6H264C266.5,435.2,268.4,433,268,430.6z"/>
	<g>
		<path class="st11" d="M251,403.1l-16.3-3.6v8c0,1-0.5,1.8-1.4,2.3C244.8,411.8,251,403.1,251,403.1z"/>
	</g>
	<g>
		<path class="st1" d="M256.9,400.7l-8.8,3.6c-1.7,0.7-3.4,1-5.2,1l0,0c-1.8,0-3.6-0.4-5.2-1l-8.8-3.6c-3-1.3-5-4.2-5-7.5V381
			c0-3.7,3-6.8,6.8-6.8h24.4c3.7,0,6.8,3,6.8,6.8v12.2C261.9,396.5,259.9,399.4,256.9,400.7z"/>
	</g>
	<g>
		<path class="st3" d="M233.4,389.1L233.4,389.1c-0.7,0-1.4-0.6-1.4-1.4v-1.4c0-0.7,0.6-1.4,1.4-1.4l0,0c0.7,0,1.4,0.6,1.4,1.4v1.4
			C234.8,388.5,234.2,389.1,233.4,389.1z"/>
	</g>
	<g>
		<path class="st3" d="M252.4,389.1L252.4,389.1c-0.7,0-1.4-0.6-1.4-1.4v-1.4c0-0.7,0.6-1.4,1.4-1.4l0,0c0.7,0,1.4,0.6,1.4,1.4v1.4
			C253.7,388.5,253.1,389.1,252.4,389.1z"/>
	</g>
	<g>
		<g>
			<path class="st11" d="M242.9,398.6c-2.4,0-4.7-0.6-6.2-1.6c-0.6-0.4-0.8-1.3-0.4-1.9c0.4-0.6,1.3-0.8,1.9-0.4
				c1.1,0.7,2.8,1.2,4.7,1.2s3.6-0.4,4.7-1.2c0.6-0.4,1.5-0.3,1.9,0.4c0.4,0.6,0.3,1.5-0.4,1.9C247.6,398,245.3,398.6,242.9,398.6z"
				/>
		</g>
	</g>
	<g>
		<path class="st10" d="M237.7,404.3c0.4,0.2,0.9,0.3,1.3,0.5c-3.9-2.8-6.4-5.3-8-6.9c-1.1-1.2-1.7-2.7-1.7-4.3v-19.2
			c-3.1,0.6-5.4,3.4-5.4,6.6v12.2c0,3.3,2,6.2,5,7.5L237.7,404.3z"/>
	</g>
	<g>
		<path class="st12" d="M258.5,411.9l-4.9,7.8c-0.7,1.2-2,1.9-3.4,1.9h-14.5c-1.4,0-2.7-0.7-3.4-1.9l-4.9-7.8
			c-0.4-0.6-1.2-0.8-1.8-0.4l-4.5,2.7c-0.6,0.4-0.9,1.2-0.5,1.9l6,9.7h32.5l6-9.7c0.4-0.6,0.2-1.5-0.5-1.9l-4.5-2.7
			C259.7,411.1,258.8,411.3,258.5,411.9z"/>
	</g>
	<g>
		<rect x="226.6" y="425.7" class="st13" width="32.5" height="9.5"/>
	</g>
	<g>
		<path class="st14" d="M265,375.8c-2.4-12.1-11-19.2-22.1-19.2c-11.1,0-19.7,7.1-22.1,19.2c-2.6,12.7-3.7,31.7-3.7,48.6l9.5,2.7
			c0-13.3,0.9-37,1.2-44.8c8.3-0.3,25.9-1.7,29.9-6.7c0,0,1.4,35.4,1.4,51.5l9.5-2.7C268.6,407.5,267.5,388.5,265,375.8z"/>
	</g>
	<g>
		<g>
			<path class="st9" d="M235.7,375.8c1.9-9.2,7.3-15.5,14.6-18c-2.3-0.8-4.8-1.2-7.5-1.2c-11.1,0-19.7,7.1-22.1,19.2
				c-2.6,12.7-3.7,31.7-3.7,48.6l9.5,2.7c0-13.3,0.9-37,1.2-44.8c1.9-0.1,4.2-0.2,6.8-0.4C235,379.7,235.3,377.7,235.7,375.8z"/>
		</g>
	</g>
	<g>
		<path class="st12" d="M264.6,376.9h-43.4c-0.7,0-1.2-0.6-1-1.3l0.8-3.3c0.1-0.5,0.5-0.8,1-0.8h41.7c0.5,0,0.9,0.3,1,0.8l0.8,3.3
			C265.8,376.3,265.3,376.9,264.6,376.9z"/>
	</g>
	<g>
		<path class="st15" d="M230,375.6l0.8-3.3c0.1-0.5,0.5-0.8,1-0.8H222c-0.5,0-0.9,0.3-1,0.8l-0.8,3.3c-0.2,0.7,0.3,1.3,1,1.3h9.8
			C230.3,376.9,229.8,376.3,230,375.6z"/>
	</g>
	<g>
		<g>
			<g>
				<path class="st15" d="M258.5,374.1c0,1.8-3.7,3.3-5.5,3.3c-1.8,0-3.3-1.5-3.3-3.3c0-1.8,1.5-3.3,3.3-3.3
					C254.8,370.8,258.5,372.3,258.5,374.1z"/>
			</g>
		</g>
		<g>
			<g>
				<path class="st15" d="M258.5,374.1c0-1.8,3.7-3.3,5.5-3.3s3.3,1.5,3.3,3.3c0,1.8-1.5,3.3-3.3,3.3
					C262.2,377.5,258.5,376,258.5,374.1z"/>
			</g>
		</g>
		<g>
			<g>
				<path class="st13" d="M258.5,374.1c1.6,0.9,1,4.8,0.1,6.4c-0.9,1.6-2.9,2.1-4.5,1.2c-1.6-0.9-2.1-2.9-1.2-4.5
					C253.8,375.7,256.9,373.2,258.5,374.1z"/>
			</g>
		</g>
		<g>
			<g>
				<path class="st13" d="M258.5,374.1c-1.6-0.9-1-4.8-0.1-6.4s2.9-2.1,4.5-1.2c1.6,0.9,2.1,2.9,1.2,4.5
					C263.2,372.6,260.1,375.1,258.5,374.1z"/>
			</g>
		</g>
		<g>
			<g>
				<path class="st12" d="M258.5,374.1c-1.6,0.9-1,4.8-0.1,6.4c0.9,1.6,2.9,2.1,4.5,1.2s2.1-2.9,1.2-4.5S260.1,373.2,258.5,374.1z"
					/>
			</g>
		</g>
		<g>
			<g>
				<path class="st12" d="M258.5,374.1c1.6-0.9,1-4.8,0.1-6.4c-0.9-1.6-2.9-2.1-4.5-1.2c-1.6,0.9-2.1,2.9-1.2,4.5
					C253.8,372.6,256.9,375.1,258.5,374.1z"/>
			</g>
		</g>
		<g>
			<g>
				<circle class="st16" cx="258.5" cy="374.1" r="2.2"/>
			</g>
		</g>
	</g>
</g>
<g>
	<path class="st0" d="M336.6,424.5c-0.4-2.8-2.1-5.2-4.6-6.5l-3.6-1.8c-0.5-0.3-1.2,0-1.4,0.5L325,416c12.7-3.5,19.4-9.5,19.4-9.5
		c-6.7-13-4.9-32.8-10.2-44c-5.3-11.2-15.2-15.2-27.1-15.2s-21.8,4-27.1,15.2s-3.5,31-10.2,44c0,0,6.7,6.1,19.4,9.5l-1.8,0.7
		c-0.3-0.5-0.9-0.8-1.4-0.5l-3.3,1.7c-2.8,1.4-4.6,3.8-4.9,6.6l-0.1,0.6c0,0,0,0,0,0l-1.9,14.6c-0.4,3,2,5.8,5,5.8h52.8
		c3.1,0,5.4-2.7,5-5.8L336.6,424.5z"/>
	<g>
		<path class="st17" d="M334.3,362.4c-5.3-11.2-15.2-15.2-27.1-15.2s-21.8,4-27.1,15.2s-3.5,31-10.2,44c0,0,13.1,11.9,37.3,11.9
			s37.3-11.9,37.3-11.9C337.8,393.5,339.6,373.7,334.3,362.4z"/>
	</g>
	<path class="st18" d="M297,377.5c0-11.9,4.4-22.9,13.4-30.2c-1.1-0.1-2.1-0.1-3.2-0.1c-11.9,0-21.8,4-27.1,15.2s-3.5,31-10.2,44
		c0,0,9.6,8.4,27.1,11.1C297,417.6,297,386.8,297,377.5z"/>
	<g>
		<path class="st0" d="M336.6,425.1c-0.4-3.1-2.5-5.7-5.5-6.8l-11.5-4.2c-1.4-0.5-2.3-1.8-2.3-3.2v-11.1H297v11.1
			c0,1.5-0.9,2.8-2.3,3.2l-11.5,4.2c-2.9,1.1-5.1,3.7-5.5,6.8l-1.9,14.6c-0.4,3,2,5.8,5,5.8h52.8c3.1,0,5.4-2.7,5-5.8L336.6,425.1z"
			/>
		<path class="st1" d="M297,410.8c0,0.1,0,0.2,0,0.2c0,0,0,0.1,0,0.1c0,0,0,0.1,0,0.1c0,0.1,0,0.1,0,0.2c0,0,0,0,0,0
			c-0.2,0.9-0.8,1.7-1.6,2.2c14.2,2.4,22-8.4,22-8.4l-20.3-0.1V410.8L297,410.8L297,410.8z"/>
	</g>
	<path class="st4" d="M330.9,381.1v-3.4c0-4.7-3.8-8.5-8.5-8.5h-30.5c-4.7,0-8.5,3.8-8.5,8.5v3.4c-2.8,0-5.1,2.3-5.1,5.1
		c0,2.8,2.3,5.1,5.1,5.1v1.7c0,4.1,2.5,7.8,6.3,9.4l10.9,4.6c2.1,0.9,4.3,1.3,6.5,1.3l0,0c2.2,0,4.5-0.4,6.5-1.3l10.9-4.6
		c3.8-1.6,6.3-5.3,6.3-9.4v-1.7c2.8,0,5.1-2.3,5.1-5.1C336,383.4,333.7,381.1,330.9,381.1z"/>
	<path class="st0" d="M322,374.2v-4.4h-33.3c-3.1,1.3-5.3,4.3-5.3,7.8v3.4c-2.8,0-5.1,2.3-5.1,5.1c0,2.8,2.3,5.1,5.1,5.1v1.7
		c0,4.1,2.5,7.8,6.3,9.4l10.9,4.6c0.5,0.2,1.1,0.4,1.6,0.6c-4.8-3.5-8.1-6.6-9.9-8.7c-1.4-1.5-2.1-3.4-2.1-5.4v-12.3
		C295.7,380.9,313,380,322,374.2z"/>
	<g>
		<path class="st3" d="M295.3,387.9L295.3,387.9c-0.9,0-1.7-0.8-1.7-1.7v-1.7c0-0.9,0.8-1.7,1.7-1.7l0,0c0.9,0,1.7,0.8,1.7,1.7v1.7
			C297,387.1,296.2,387.9,295.3,387.9z"/>
	</g>
	<g>
		<path class="st3" d="M319,387.9L319,387.9c-0.9,0-1.7-0.8-1.7-1.7v-1.7c0-0.9,0.8-1.7,1.7-1.7l0,0c0.9,0,1.7,0.8,1.7,1.7v1.7
			C320.7,387.1,319.9,387.9,319,387.9z"/>
	</g>
	<g>
		<g>
			<path class="st5" d="M307.2,399.8c-3,0-5.8-0.7-7.7-2c-0.8-0.5-1-1.6-0.4-2.4c0.5-0.8,1.6-1,2.4-0.4c1.3,0.9,3.5,1.4,5.8,1.4
				s4.5-0.5,5.8-1.4c0.8-0.5,1.8-0.3,2.4,0.4c0.5,0.8,0.3,1.8-0.4,2.4C313,399,310.2,399.8,307.2,399.8z"/>
		</g>
	</g>
	<path class="st17" d="M286.8,377.7c0,0,10.8,1.1,16.9-1.7c0.9-0.4,3.4-5.9,3.4-5.9v7.6c0,0,7.8-0.4,15.9-3.7V368h-37.4
		C286.4,371.8,286.8,377.7,286.8,377.7z"/>
	<g>
		<path class="st19" d="M331.9,418l-3.6-1.8c-0.6-0.3-1.3,0-1.5,0.7c-2.3,8.6-10.2,15-19.6,15c-9.4,0-17.3-6.4-19.6-15
			c-0.2-0.7-0.9-1-1.5-0.7l-3.3,1.7c-2.8,1.4-4.6,3.8-4.9,6.6l-2,15.2c-0.4,3,2,5.8,5,5.8h52.8c3.1,0,5.4-2.7,5-5.8l-2-15.2
			C336.2,421.7,334.5,419.3,331.9,418z"/>
	</g>
	<g>
		<path class="st20" d="M278.5,422c-0.4,0.8-0.7,1.6-0.8,2.5l-2,15.2c-0.4,3,2,5.8,5,5.8h7.7v-6.8c0-2.2-0.7-4.3-2-6.1L278.5,422z"
			/>
	</g>
	<g>
		<path class="st20" d="M335.8,422c0.4,0.8,0.7,1.6,0.8,2.5l2,15.2c0.4,3-2,5.8-5,5.8h-7.7v-6.8c0-2.2,0.7-4.3,2-6.1L335.8,422z"/>
	</g>
	<g>
		<g>
			<path class="st21" d="M328.3,369.2c0,2.3-4.6,4.1-6.9,4.1s-4.1-1.8-4.1-4.1s1.8-4.1,4.1-4.1S328.3,366.9,328.3,369.2z"/>
		</g>
	</g>
	<g>
		<g>
			<path class="st21" d="M328.3,369.2c0-2.3,4.6-4.1,6.9-4.1c2.3,0,4.1,1.8,4.1,4.1s-1.8,4.1-4.1,4.1
				C332.9,373.3,328.3,371.4,328.3,369.2z"/>
		</g>
	</g>
	<g>
		<g>
			<path class="st19" d="M328.3,369.2c2,1.1,1.3,6,0.1,8c-1.1,2-3.7,2.7-5.6,1.5c-2-1.1-2.7-3.7-1.5-5.6
				C322.5,371.1,326.4,368,328.3,369.2z"/>
		</g>
	</g>
	<g>
		<g>
			<path class="st19" d="M328.3,369.2c-2-1.1-1.3-6-0.1-8c1.1-2,3.7-2.7,5.6-1.5c2,1.1,2.7,3.7,1.5,5.6
				C334.2,367.2,330.3,370.3,328.3,369.2z"/>
		</g>
	</g>
	<g>
		<g>
			<path class="st20" d="M328.3,369.2c-2,1.1-1.3,6-0.1,8c1.1,2,3.7,2.7,5.6,1.5c2-1.1,2.7-3.7,1.5-5.6
				C334.2,371.1,330.3,368,328.3,369.2z"/>
		</g>
	</g>
	<g>
		<g>
			<path class="st20" d="M328.3,369.2c2-1.1,1.3-6,0.1-8c-1.1-2-3.7-2.7-5.6-1.5c-2,1.1-2.7,3.7-1.5,5.6
				C322.5,367.2,326.4,370.3,328.3,369.2z"/>
		</g>
	</g>
	<g>
		<g>
			<circle class="st16" cx="328.3" cy="369.2" r="2.8"/>
		</g>
	</g>
	<path class="st18" d="M285.7,368c0.8,3.9,1.2,9.7,1.2,9.7s4.9,0.5,10,0c0-0.1,0-0.1,0-0.2c0-3.3,0.4-6.5,1.1-9.5H285.7z"/>
</g>
</svg>
